<svg width="53" height="50" viewBox="0 0 53 50" fill="none" xmlns="http://www.w3.org/2000/svg">
<rect width="52.3674" height="49.1231" rx="8" fill="#22C55E"/>
<path d="M26.1836 13.1873L10.2207 19.1735L26.1836 27.1549L33.7865 23.3535L26.6541 21.1728C26.5072 21.2432 26.3465 21.28 26.1836 21.2803C25.8935 21.2803 25.6153 21.1651 25.4102 20.96C25.2051 20.7549 25.0898 20.4767 25.0898 20.1866C25.0898 19.8965 25.2051 19.6183 25.4102 19.4132C25.6153 19.2081 25.8935 19.0928 26.1836 19.0928L26.0027 19.6809L27.2699 20.0707C27.2701 20.072 27.2702 20.0733 27.2704 20.0745L29.1403 20.6464L39.7871 23.9221V24.7524C39.6398 24.8525 39.5193 24.9872 39.4359 25.1446C39.3525 25.3019 39.3088 25.4773 39.3086 25.6554C39.3088 25.8376 39.3545 26.0168 39.4415 26.1769C39.5286 26.3369 39.6543 26.4727 39.8071 26.5718C39.3093 28.4534 39.3086 32.7225 39.3086 34.4053C40.4023 35.1159 40.4023 35.1419 41.4961 34.4053C41.4961 32.7227 41.4955 28.4544 40.9977 26.5724C41.1506 26.4732 41.2763 26.3373 41.3634 26.1772C41.4504 26.017 41.496 25.8376 41.4961 25.6553C41.4961 25.477 41.4524 25.3014 41.369 25.1438C41.2856 24.9862 41.165 24.8514 41.0176 24.7511V23.0134L36.9622 21.7657L42.1464 19.1735L26.1836 13.1873ZM16.8609 24.0831L15.9638 29.4657C17.7532 29.6997 19.8936 30.7397 21.8612 31.9695C22.9803 32.6689 24.0284 33.4367 24.8797 34.1816C25.4 34.6369 25.8351 35.0737 26.1836 35.5034C26.532 35.0736 26.9671 34.6369 27.4875 34.1816C28.3387 33.4367 29.3868 32.6689 30.5059 31.9695C32.4736 30.7397 34.614 29.6997 36.4033 29.4657L35.5061 24.0831H35.0788L26.1836 28.5307L17.2882 24.0831H16.8609Z" fill="#582996"/>
</svg>
