<svg width="886" height="355" viewBox="0 0 886 355" fill="none" xmlns="http://www.w3.org/2000/svg">
<mask id="mask0_524_192" style="mask-type:alpha" maskUnits="userSpaceOnUse" x="0" y="0" width="886" height="355">
<rect x="0.5" y="0.5" width="59" height="59" stroke="#DADADF"/>
<rect x="59.5" y="0.5" width="59" height="59" stroke="#DADADF"/>
<rect x="118.5" y="0.5" width="59" height="59" stroke="#DADADF"/>
<rect x="177.5" y="0.5" width="59" height="59" stroke="#DADADF"/>
<rect x="236.5" y="0.5" width="59" height="59" stroke="#DADADF"/>
<rect x="295.5" y="0.5" width="59" height="59" stroke="#DADADF"/>
<rect x="354.5" y="0.5" width="59" height="59" stroke="#DADADF"/>
<rect x="413.5" y="0.5" width="59" height="59" stroke="#DADADF"/>
<rect x="472.5" y="0.5" width="59" height="59" stroke="#DADADF"/>
<rect x="531.5" y="0.5" width="59" height="59" stroke="#DADADF"/>
<rect x="590.5" y="0.5" width="59" height="59" stroke="#DADADF"/>
<rect x="649.5" y="0.5" width="59" height="59" stroke="#DADADF"/>
<rect x="708.5" y="0.5" width="59" height="59" stroke="#DADADF"/>
<rect x="767.5" y="0.5" width="59" height="59" stroke="#DADADF"/>
<rect x="826.5" y="0.5" width="59" height="59" stroke="#DADADF"/>
<rect x="0.5" y="59.5" width="59" height="59" stroke="#DADADF"/>
<rect x="59.5" y="59.5" width="59" height="59" stroke="#DADADF"/>
<rect x="118.5" y="59.5" width="59" height="59" stroke="#DADADF"/>
<rect x="177.5" y="59.5" width="59" height="59" stroke="#DADADF"/>
<rect x="236.5" y="59.5" width="59" height="59" stroke="#DADADF"/>
<rect x="295.5" y="59.5" width="59" height="59" stroke="#DADADF"/>
<rect x="354.5" y="59.5" width="59" height="59" stroke="#DADADF"/>
<rect x="413.5" y="59.5" width="59" height="59" stroke="#DADADF"/>
<rect x="472.5" y="59.5" width="59" height="59" stroke="#DADADF"/>
<rect x="531.5" y="59.5" width="59" height="59" stroke="#DADADF"/>
<rect x="590.5" y="59.5" width="59" height="59" stroke="#DADADF"/>
<rect x="649.5" y="59.5" width="59" height="59" stroke="#DADADF"/>
<rect x="708.5" y="59.5" width="59" height="59" stroke="#DADADF"/>
<rect x="767.5" y="59.5" width="59" height="59" stroke="#DADADF"/>
<rect x="826.5" y="59.5" width="59" height="59" stroke="#DADADF"/>
<rect x="0.5" y="118.5" width="59" height="59" stroke="#DADADF"/>
<rect x="59.5" y="118.5" width="59" height="59" stroke="#DADADF"/>
<rect x="118.5" y="118.5" width="59" height="59" stroke="#DADADF"/>
<rect x="177.5" y="118.5" width="59" height="59" stroke="#DADADF"/>
<rect x="236.5" y="118.5" width="59" height="59" stroke="#DADADF"/>
<rect x="295.5" y="118.5" width="59" height="59" stroke="#DADADF"/>
<rect x="354.5" y="118.5" width="59" height="59" stroke="#DADADF"/>
<rect x="413.5" y="118.5" width="59" height="59" stroke="#DADADF"/>
<rect x="472.5" y="118.5" width="59" height="59" stroke="#DADADF"/>
<rect x="531.5" y="118.5" width="59" height="59" stroke="#DADADF"/>
<rect x="590.5" y="118.5" width="59" height="59" stroke="#DADADF"/>
<rect x="649.5" y="118.5" width="59" height="59" stroke="#DADADF"/>
<rect x="708.5" y="118.5" width="59" height="59" stroke="#DADADF"/>
<rect x="767.5" y="118.5" width="59" height="59" stroke="#DADADF"/>
<rect x="826.5" y="118.5" width="59" height="59" stroke="#DADADF"/>
<rect x="0.5" y="177.5" width="59" height="59" stroke="#DADADF"/>
<rect x="59.5" y="177.5" width="59" height="59" stroke="#DADADF"/>
<rect x="118.5" y="177.5" width="59" height="59" stroke="#DADADF"/>
<rect x="177.5" y="177.5" width="59" height="59" stroke="#DADADF"/>
<rect x="236.5" y="177.5" width="59" height="59" stroke="#DADADF"/>
<rect x="295.5" y="177.5" width="59" height="59" stroke="#DADADF"/>
<rect x="354.5" y="177.5" width="59" height="59" stroke="#DADADF"/>
<rect x="413.5" y="177.5" width="59" height="59" stroke="#DADADF"/>
<rect x="472.5" y="177.5" width="59" height="59" stroke="#DADADF"/>
<rect x="531.5" y="177.5" width="59" height="59" stroke="#DADADF"/>
<rect x="590.5" y="177.5" width="59" height="59" stroke="#DADADF"/>
<rect x="649.5" y="177.5" width="59" height="59" stroke="#DADADF"/>
<rect x="708.5" y="177.5" width="59" height="59" stroke="#DADADF"/>
<rect x="767.5" y="177.5" width="59" height="59" stroke="#DADADF"/>
<rect x="826.5" y="177.5" width="59" height="59" stroke="#DADADF"/>
<rect x="0.5" y="236.5" width="59" height="59" stroke="#DADADF"/>
<rect x="59.5" y="236.5" width="59" height="59" stroke="#DADADF"/>
<rect x="118.5" y="236.5" width="59" height="59" stroke="#DADADF"/>
<rect x="177.5" y="236.5" width="59" height="59" stroke="#DADADF"/>
<rect x="236.5" y="236.5" width="59" height="59" stroke="#DADADF"/>
<rect x="295.5" y="236.5" width="59" height="59" stroke="#DADADF"/>
<rect x="354.5" y="236.5" width="59" height="59" stroke="#DADADF"/>
<rect x="413.5" y="236.5" width="59" height="59" stroke="#DADADF"/>
<rect x="472.5" y="236.5" width="59" height="59" stroke="#DADADF"/>
<rect x="531.5" y="236.5" width="59" height="59" stroke="#DADADF"/>
<rect x="590.5" y="236.5" width="59" height="59" stroke="#DADADF"/>
<rect x="649.5" y="236.5" width="59" height="59" stroke="#DADADF"/>
<rect x="708.5" y="236.5" width="59" height="59" stroke="#DADADF"/>
<rect x="767.5" y="236.5" width="59" height="59" stroke="#DADADF"/>
<rect x="826.5" y="236.5" width="59" height="59" stroke="#DADADF"/>
<rect x="0.5" y="295.5" width="59" height="59" stroke="#DADADF"/>
<rect x="59.5" y="295.5" width="59" height="59" stroke="#DADADF"/>
<rect x="118.5" y="295.5" width="59" height="59" stroke="#DADADF"/>
<rect x="177.5" y="295.5" width="59" height="59" stroke="#DADADF"/>
<rect x="236.5" y="295.5" width="59" height="59" stroke="#DADADF"/>
<rect x="295.5" y="295.5" width="59" height="59" stroke="#DADADF"/>
<rect x="354.5" y="295.5" width="59" height="59" stroke="#DADADF"/>
<rect x="413.5" y="295.5" width="59" height="59" stroke="#DADADF"/>
<rect x="472.5" y="295.5" width="59" height="59" stroke="#DADADF"/>
<rect x="531.5" y="295.5" width="59" height="59" stroke="#DADADF"/>
<rect x="590.5" y="295.5" width="59" height="59" stroke="#DADADF"/>
<rect x="649.5" y="295.5" width="59" height="59" stroke="#DADADF"/>
<rect x="708.5" y="295.5" width="59" height="59" stroke="#DADADF"/>
<rect x="767.5" y="295.5" width="59" height="59" stroke="#DADADF"/>
<rect x="826.5" y="295.5" width="59" height="59" stroke="#DADADF"/>
</mask>
<g mask="url(#mask0_524_192)">
<rect x="-57" y="-28" width="967" height="426" fill="url(#paint0_radial_524_192)"/>
</g>
<defs>
<radialGradient id="paint0_radial_524_192" cx="0" cy="0" r="1" gradientUnits="userSpaceOnUse" gradientTransform="translate(426.5 185) rotate(90) scale(213 483.5)">
<stop stop-color="#D9D9D9"/>
<stop offset="1" stop-color="#D9D9D9" stop-opacity="0"/>
</radialGradient>
</defs>
</svg>
