<svg width="40" height="40" viewBox="0 0 40 40" fill="none" xmlns="http://www.w3.org/2000/svg">
<path d="M33.3333 28.3335C34.2174 28.3335 35.0652 27.9823 35.6904 27.3572C36.3155 26.7321 36.6667 25.8842 36.6667 25.0002V6.66683C36.6667 5.78277 36.3155 4.93493 35.6904 4.30981C35.0652 3.68469 34.2174 3.3335 33.3333 3.3335H15.7667C16.35 4.35016 16.6667 5.50016 16.6667 6.66683H33.3333V25.0002H18.3333V28.3335M25 11.6668V15.0002H15V36.6668H11.6667V26.6668H8.33333V36.6668H5V23.3335H2.5V15.0002C2.5 14.1161 2.85119 13.2683 3.47631 12.6431C4.10143 12.018 4.94928 11.6668 5.83333 11.6668H25ZM13.3333 6.66683C13.3333 7.55088 12.9821 8.39873 12.357 9.02385C11.7319 9.64897 10.8841 10.0002 10 10.0002C9.11595 10.0002 8.2681 9.64897 7.64298 9.02385C7.01786 8.39873 6.66667 7.55088 6.66667 6.66683C6.66667 5.78277 7.01786 4.93493 7.64298 4.30981C8.2681 3.68469 9.11595 3.3335 10 3.3335C10.8841 3.3335 11.7319 3.68469 12.357 4.30981C12.9821 4.93493 13.3333 5.78277 13.3333 6.66683Z" fill="#22C55E"/>
</svg>
