<svg width="40" height="40" viewBox="0 0 40 40" fill="none" xmlns="http://www.w3.org/2000/svg">
<path d="M20 9.16675C21.5471 9.16675 23.0308 9.78133 24.1248 10.8753C25.2188 11.9693 25.8333 13.453 25.8333 15.0001C25.8333 16.5472 25.2188 18.0309 24.1248 19.1249C23.0308 20.2188 21.5471 20.8334 20 20.8334C18.4529 20.8334 16.9692 20.2188 15.8752 19.1249C14.7812 18.0309 14.1667 16.5472 14.1667 15.0001C14.1667 13.453 14.7812 11.9693 15.8752 10.8753C16.9692 9.78133 18.4529 9.16675 20 9.16675ZM8.33333 13.3334C9.26667 13.3334 10.1333 13.5834 10.8833 14.0334C10.6333 16.4167 11.3333 18.7834 12.7667 20.6334C11.9333 22.2334 10.2667 23.3334 8.33333 23.3334C7.00725 23.3334 5.73548 22.8066 4.7978 21.8689C3.86012 20.9313 3.33333 19.6595 3.33333 18.3334C3.33333 17.0073 3.86012 15.7356 4.7978 14.7979C5.73548 13.8602 7.00725 13.3334 8.33333 13.3334ZM31.6667 13.3334C32.9927 13.3334 34.2645 13.8602 35.2022 14.7979C36.1399 15.7356 36.6667 17.0073 36.6667 18.3334C36.6667 19.6595 36.1399 20.9313 35.2022 21.8689C34.2645 22.8066 32.9927 23.3334 31.6667 23.3334C29.7333 23.3334 28.0667 22.2334 27.2333 20.6334C28.6865 18.7574 29.3609 16.3937 29.1167 14.0334C29.8667 13.5834 30.7333 13.3334 31.6667 13.3334ZM9.16667 30.4167C9.16667 26.9667 14.0167 24.1667 20 24.1667C25.9833 24.1667 30.8333 26.9667 30.8333 30.4167V33.3334H9.16667V30.4167ZM0 33.3334V30.8334C0 28.5167 3.15 26.5667 7.41667 26.0001C6.43333 27.1334 5.83333 28.7001 5.83333 30.4167V33.3334H0ZM40 33.3334H34.1667V30.4167C34.1667 28.7001 33.5667 27.1334 32.5833 26.0001C36.85 26.5667 40 28.5167 40 30.8334V33.3334Z" fill="#FED924"/>
</svg>
