<svg width="40" height="40" viewBox="0 0 40 40" fill="none" xmlns="http://www.w3.org/2000/svg">
<path d="M20.0001 10.0001C22.6522 10.0001 25.1958 11.0537 27.0712 12.929C28.9465 14.8044 30.0001 17.3479 30.0001 20.0001C30.0001 23.7001 27.9834 26.9334 25.0001 28.6667V31.6667C25.0001 32.1088 24.8245 32.5327 24.5119 32.8453C24.1994 33.1578 23.7754 33.3334 23.3334 33.3334H16.6667C16.2247 33.3334 15.8008 33.1578 15.4882 32.8453C15.1757 32.5327 15.0001 32.1088 15.0001 31.6667V28.6667C12.0167 26.9334 10.0001 23.7001 10.0001 20.0001C10.0001 17.3479 11.0537 14.8044 12.929 12.929C14.8044 11.0537 17.3479 10.0001 20.0001 10.0001ZM23.3334 35.0001V36.6667C23.3334 37.1088 23.1578 37.5327 22.8453 37.8453C22.5327 38.1578 22.1088 38.3334 21.6667 38.3334H18.3334C17.8914 38.3334 17.4675 38.1578 17.1549 37.8453C16.8423 37.5327 16.6667 37.1088 16.6667 36.6667V35.0001H23.3334ZM33.3334 18.3334H38.3334V21.6667H33.3334V18.3334ZM1.66675 18.3334H6.66675V21.6667H1.66675V18.3334ZM21.6667 1.66675V6.66675H18.3334V1.66675H21.6667ZM8.20008 5.83342L11.7501 9.40008L9.38342 11.7501L5.83342 8.21675L8.20008 5.83342ZM28.2501 9.38342L31.7834 5.83342L34.1667 8.21675L30.6168 11.7501L28.2501 9.38342Z" fill="#22C55E"/>
</svg>
