<svg width="40" height="40" viewBox="0 0 40 40" fill="none" xmlns="http://www.w3.org/2000/svg">
<path d="M29.8333 28.9832C29.3999 27.6499 28.1499 26.6666 26.6666 26.6666H24.9999V21.6666C24.9999 21.2246 24.8243 20.8006 24.5118 20.4881C24.1992 20.1755 23.7753 19.9999 23.3333 19.9999H13.3333V16.6666H16.6666C17.1086 16.6666 17.5325 16.491 17.8451 16.1784C18.1577 15.8659 18.3333 15.4419 18.3333 14.9999V11.6666H21.6666C22.5506 11.6666 23.3985 11.3154 24.0236 10.6903C24.6487 10.0652 24.9999 9.21731 24.9999 8.33325V7.64992C26.994 8.45386 28.7637 9.72904 30.1573 11.3663C31.5509 13.0036 32.5271 14.9542 33.0022 17.0511C33.4772 19.148 33.4371 21.3289 32.8852 23.4069C32.3334 25.485 31.2862 27.3983 29.8333 28.9832ZM18.3333 33.2166C11.7499 32.3999 6.66659 26.7999 6.66659 19.9999C6.66659 18.9666 6.79992 17.9666 7.01659 17.0166L14.9999 24.9999V26.6666C14.9999 27.5506 15.3511 28.3985 15.9762 29.0236C16.6014 29.6487 17.4492 29.9999 18.3333 29.9999M19.9999 3.33325C17.8112 3.33325 15.644 3.76435 13.6219 4.60193C11.5998 5.4395 9.76245 6.66716 8.21481 8.21481C5.0892 11.3404 3.33325 15.5796 3.33325 19.9999C3.33325 24.4202 5.0892 28.6594 8.21481 31.785C9.76245 33.3327 11.5998 34.5603 13.6219 35.3979C15.644 36.2355 17.8112 36.6666 19.9999 36.6666C24.4202 36.6666 28.6594 34.9106 31.785 31.785C34.9106 28.6594 36.6666 24.4202 36.6666 19.9999C36.6666 17.8112 36.2355 15.644 35.3979 13.6219C34.5603 11.5998 33.3327 9.76245 31.785 8.21481C30.2374 6.66716 28.4001 5.4395 26.378 4.60193C24.3559 3.76435 22.1886 3.33325 19.9999 3.33325Z" fill="#22C55E"/>
</svg>
