<svg width="40" height="40" viewBox="0 0 40 40" fill="none" xmlns="http://www.w3.org/2000/svg">
<g clip-path="url(#clip0_533_41)">
<path d="M35.3125 13.7627C35.25 13.6064 35.1844 13.4502 35.1172 13.2939C34.1091 10.969 32.4776 8.96816 30.4031 7.5127H33.75C34.0815 7.5127 34.3995 7.381 34.6339 7.14658C34.8683 6.91216 35 6.59422 35 6.2627C35 5.93117 34.8683 5.61323 34.6339 5.37881C34.3995 5.14439 34.0815 5.0127 33.75 5.0127H17.5C14.0439 5.01708 10.7158 6.32106 8.17669 8.6657C5.63753 11.0103 4.073 14.2241 3.79375 17.6689C2.714 17.9374 1.75462 18.5582 1.06748 19.4333C0.380338 20.3083 0.00468987 21.3876 0 22.5002C0 22.8317 0.131696 23.1497 0.366117 23.3841C0.600537 23.6185 0.918479 23.7502 1.25 23.7502C1.58152 23.7502 1.89946 23.6185 2.13388 23.3841C2.3683 23.1497 2.5 22.8317 2.5 22.5002C2.50029 22.0444 2.6252 21.5973 2.86121 21.2073C3.09723 20.8174 3.43537 20.4994 3.83906 20.2877C4.1502 23.0922 5.3196 25.7322 7.1875 27.8471L9.15 33.3408C9.3235 33.8268 9.6431 34.2471 10.065 34.5442C10.4868 34.8413 10.9903 35.0006 11.5063 35.0002H13.4937C14.0095 35.0002 14.5126 34.8408 14.9341 34.5437C15.3557 34.2467 15.675 33.8265 15.8484 33.3408L16.1484 32.5002H25.1016L25.4016 33.3408C25.575 33.8265 25.8943 34.2467 26.3159 34.5437C26.7374 34.8408 27.2405 35.0002 27.7563 35.0002H29.7437C30.2595 35.0002 30.7626 34.8408 31.1841 34.5437C31.6057 34.2467 31.925 33.8265 32.0984 33.3408L34.6312 26.2502H35C35.9946 26.2502 36.9484 25.8551 37.6516 25.1518C38.3549 24.4486 38.75 23.4948 38.75 22.5002V17.5002C38.7501 16.5596 38.3968 15.6534 37.7601 14.9611C37.1234 14.2688 36.2498 13.8411 35.3125 13.7627ZM23.75 11.2502H17.5C17.1685 11.2502 16.8505 11.1185 16.6161 10.8841C16.3817 10.6497 16.25 10.3317 16.25 10.0002C16.25 9.66867 16.3817 9.35073 16.6161 9.11631C16.8505 8.88189 17.1685 8.7502 17.5 8.7502H23.75C24.0815 8.7502 24.3995 8.88189 24.6339 9.11631C24.8683 9.35073 25 9.66867 25 10.0002C25 10.3317 24.8683 10.6497 24.6339 10.8841C24.3995 11.1185 24.0815 11.2502 23.75 11.2502ZM28.125 20.0002C27.7542 20.0002 27.3916 19.8902 27.0833 19.6842C26.775 19.4782 26.5346 19.1853 26.3927 18.8427C26.2508 18.5001 26.2137 18.1231 26.286 17.7594C26.3584 17.3957 26.537 17.0616 26.7992 16.7994C27.0614 16.5371 27.3955 16.3586 27.7592 16.2862C28.1229 16.2139 28.4999 16.251 28.8425 16.3929C29.1851 16.5348 29.478 16.7752 29.684 17.0835C29.89 17.3918 30 17.7544 30 18.1252C30 18.6225 29.8025 19.0994 29.4508 19.451C29.0992 19.8027 28.6223 20.0002 28.125 20.0002Z" fill="#FED924"/>
</g>
<defs>
<clipPath id="clip0_533_41">
<rect width="40" height="40" fill="white"/>
</clipPath>
</defs>
</svg>
