<svg xmlns="http://www.w3.org/2000/svg" viewBox="0 0 451.99 63.75"><defs><style>.cls-1{fill:#fff;}</style></defs><g id="Layer_2" data-name="Layer 2"><g id="Layer_1-2" data-name="Layer 1"><path class="cls-1" d="M60.86,24.83l0,.14c-4.24,12.2-17,25.19-20.26,27.53s-7,2.86-11.42,2.86c-6.05,0-10.71-2.8-14.49-7.29A24.53,24.53,0,0,1,9,31.75,24,24,0,0,1,14.65,15.6,18.49,18.49,0,0,1,29.39,9,19.06,19.06,0,0,1,41,12.61l5.61-6.87C41.82,2,36,.18,29.28.18A27.36,27.36,0,0,0,8.36,9.24Q0,18.28,0,31.87c0,9.07,2.79,16.62,8.41,22.74a27.35,27.35,0,0,0,21,9.14h.09c6.7-.5,8.18-.64,12.75-3,8.21-4.25,17-16.27,19-20a4.11,4.11,0,0,0,.44-1Z"/><path class="cls-1" d="M177.54,9.15a28.79,28.79,0,0,0-41.93,0,30.6,30.6,0,0,0-5.11,7.42v0a34.32,34.32,0,0,0-3.27,15.21,36.14,36.14,0,0,0,.16,3.64,31.41,31.41,0,0,0,8.26,19.08,27.27,27.27,0,0,0,21,9.15v0a27.14,27.14,0,0,0,20.92-9.15q8.36-9.16,8.38-22.73C185.92,22.69,183.11,15.18,177.54,9.15Zm-6.09,39.13A18.49,18.49,0,0,1,156.62,55v-.07a18.74,18.74,0,0,1-14.85-6.71A24.56,24.56,0,0,1,136,31.68a23.7,23.7,0,0,1,5.78-16.2,19.9,19.9,0,0,1,29.63,0,23.66,23.66,0,0,1,5.79,16.22A24.62,24.62,0,0,1,171.45,48.28Z"/><path class="cls-1" d="M234.87,1.2a4.47,4.47,0,0,0-4.13,3.05L215.35,47.52a1.18,1.18,0,0,1-2.25,0L197.67,4.25a4.42,4.42,0,0,0-4.12-3h-.09c-3.1,0-5.23,3.38-4.09,6.5l18.38,50.07a7.25,7.25,0,0,0,2.52,3.41,6.65,6.65,0,0,0,3.9,1.29,6.9,6.9,0,0,0,6.41-4.7L239,7.7A5.25,5.25,0,0,0,239.29,6,4.6,4.6,0,0,0,234.87,1.2Z"/><path class="cls-1" d="M281.48,9.81H250V1.2l31.46,0"/><path class="cls-1" d="M332.4,42.56a3.6,3.6,0,0,1,1.3-5A16.33,16.33,0,0,0,339.83,32a20,20,0,0,0,3.46-11.44,20.22,20.22,0,0,0-5-13.51q-5-5.89-13.44-5.89H301.2A3.31,3.31,0,0,0,298,4.6V58.71a3.59,3.59,0,0,0,3.45,3.72h1.83a3.59,3.59,0,0,0,3.44-3.72V43.14a3.32,3.32,0,0,1,3.2-3.43h9.3a3.1,3.1,0,0,1,2.68,1.56l11.77,19.6a3.22,3.22,0,0,0,2.74,1.6h2.2c2.61,0,4.16-3.11,2.72-5.44Zm-8.14-11.32h-14.4a3.33,3.33,0,0,1-3.19-3.45l.06-15.62a2.42,2.42,0,0,1,2.33-2.5h15.53a9.41,9.41,0,0,1,7.42,3.2,11.35,11.35,0,0,1,2.8,8.47,10.55,10.55,0,0,1-1.51,4.89A9.91,9.91,0,0,1,324.26,31.24Z"/><path class="cls-1" d="M392.5,34.83c-2.49-2.42-6.18-4.49-11.06-6.14l-13.82-4.8a13.35,13.35,0,0,1-5.5-2.94,6,6,0,0,1-1.74-4.36,7.25,7.25,0,0,1,3-5.77,11.82,11.82,0,0,1,7.66-2.44A16.92,16.92,0,0,1,380.49,11,16,16,0,0,1,385,15.25a4.23,4.23,0,0,0,3.4,1.86,3.73,3.73,0,0,0,1.18-.19,4.62,4.62,0,0,0,2-7.15,25.81,25.81,0,0,0-5.74-5.4A25.29,25.29,0,0,0,371,0a20.24,20.24,0,0,0-13.92,5,15.42,15.42,0,0,0-5.54,11.89c0,7.13,4.2,12.13,12.65,15l14.16,4.92c3.22,1.11,5.49,2.34,6.87,3.75a7.09,7.09,0,0,1,2,5.18c0,2.52-1.21,4.73-3.61,6.66a14.2,14.2,0,0,1-9.19,2.9,17.49,17.49,0,0,1-11-3.58,19.15,19.15,0,0,1-5.22-6.07,4,4,0,0,0-4.78-2l-.31.09a4.59,4.59,0,0,0-2.4,6.55,27.23,27.23,0,0,0,7,8.1A25.4,25.4,0,0,0,374,63.67l.24,0q9.73,0,15.88-5.39A16.88,16.88,0,0,0,396.22,45C396.22,40.65,395,37.26,392.5,34.83Z"/><path class="cls-1" d="M451.69,56.24l-18.21-50a7.46,7.46,0,0,0-6.91-5.08h-1a7.46,7.46,0,0,0-6.92,5.08l-18.2,50a4.7,4.7,0,0,0-.29,1.67,4.41,4.41,0,0,0,4.24,4.56,4.24,4.24,0,0,0,3.95-2.91l2.89-8a5.82,5.82,0,0,1,5.39-4h18.9a5.81,5.81,0,0,1,5.39,4l2.9,8a4.4,4.4,0,0,0,1.55,2.11,4,4,0,0,0,2.4.8C450.73,62.47,452.78,59.23,451.69,56.24ZM434.22,39.19H417.9a1.64,1.64,0,0,1-1.44-2.26l8.19-22.71a1.51,1.51,0,0,1,2.88,0l8.12,22.71A1.64,1.64,0,0,1,434.22,39.19Z"/><path class="cls-1" d="M120.11,34.65c-.47.72-1,1.46-1.52,2.23a61.79,61.79,0,0,1-9.47,10.39l-6.26,13.32s0,0,0,0c1.12-.64,2.23-1.33,3.3-2.08,10.11-6.93,18.52-17.85,21.19-23a11.47,11.47,0,0,0,.62-1.33l2.49-17.52v0l0-.06C128.37,21,129.59,20.1,120.11,34.65Z"/><path class="cls-1" d="M250,27v8.59h31.46V27Z"/><path class="cls-1" d="M250,53.32v8.59h31.46V53.32Z"/><path class="cls-1" d="M110.52,9.24a27.39,27.39,0,0,0-21-9.06,27.41,27.41,0,0,0-21,9.06A30.54,30.54,0,0,0,60.82,25a40,40,0,0,0,.39,15.74,30.94,30.94,0,0,0,7.42,13.9,27.38,27.38,0,0,0,21,9.14v0a27.91,27.91,0,0,0,13.24-3.13s0,0,0,0a26.06,26.06,0,0,0,3.3-2.08,29.77,29.77,0,0,0,4.32-3.91,31.44,31.44,0,0,0,8.07-17.69,39.32,39.32,0,0,0,.31-5C118.9,22.78,116.1,15.27,110.52,9.24ZM89.62,55.08V55a18.64,18.64,0,0,1-14.86-6.71A24.5,24.5,0,0,1,69,31.75a23.71,23.71,0,0,1,5.78-16.19A18.83,18.83,0,0,1,89.62,9,18.77,18.77,0,0,1,104.4,15.6a23.86,23.86,0,0,1,5.78,16.24,24.69,24.69,0,0,1-5.74,16.53A18.58,18.58,0,0,1,89.62,55.08Z"/></g></g></svg>