<svg width="500" height="70" viewBox="0 0 500 70" fill="none" xmlns="http://www.w3.org/2000/svg">
<g clip-path="url(#clip0_30_4)">
<path d="M67.3245 27.1989V27.3523C62.6341 40.7163 48.5188 54.9457 44.9125 57.5089C41.3062 60.0722 37.169 60.6418 32.2795 60.6418C25.5869 60.6418 20.4319 57.5747 16.2504 52.6563C12.0315 47.6507 9.79437 41.297 9.95597 34.7792C9.77378 28.3221 11.9987 22.0246 16.2061 17.0883C18.1946 14.7403 20.6953 12.8697 23.5197 11.6174C26.3441 10.3651 29.4186 9.7637 32.5118 9.85858C37.114 9.75303 41.6247 11.1419 45.355 13.813L51.5609 6.28754C46.2621 2.19071 39.8239 0.19706 32.3901 0.19706C28.0389 0.106419 23.7192 0.946076 19.7254 2.65877C15.7317 4.37146 12.158 6.91689 9.24799 10.1215C3.08266 16.7232 0 24.9862 0 34.9106C0 44.846 3.08635 53.1163 9.3033 59.8202C12.2145 63.0527 15.7988 65.6216 19.8093 67.3501C23.8198 69.0786 28.161 69.9254 32.5339 69.8323H32.6335C40.0451 69.2846 41.6823 69.1312 46.7378 66.5461C55.8198 61.8906 65.5435 48.7237 67.7559 44.6379C67.9667 44.2958 68.1304 43.9274 68.2427 43.5424L67.3245 27.1989Z" fill="#5C57FF"/>
<path d="M196.398 10.023C193.42 6.88998 189.827 4.39346 185.838 2.687C181.85 0.980532 177.551 0.10022 173.206 0.10022C168.861 0.10022 164.563 0.980532 160.574 2.687C156.586 4.39346 152.992 6.88998 150.014 10.023C147.735 12.4413 145.83 15.1803 144.362 18.1509V18.1509C141.884 23.3572 140.646 29.0574 140.744 34.8121C140.735 36.1433 140.795 37.4741 140.921 38.7994C141.483 46.5913 144.705 53.9622 150.059 59.6998C152.965 62.9389 156.548 65.5131 160.56 67.2438C164.571 68.9746 168.915 69.8205 173.289 69.7228V69.7228C177.65 69.8173 181.98 68.9695 185.976 67.2385C189.973 65.5076 193.541 62.935 196.431 59.6998C202.597 53.0105 205.687 44.711 205.701 34.8012C205.668 24.8548 202.56 16.6283 196.398 10.023ZM189.661 52.8864C187.675 55.2717 185.164 57.1753 182.321 58.4513C179.477 59.7272 176.376 60.3417 173.256 60.2475V60.1709C170.136 60.2494 167.038 59.6291 164.193 58.3564C161.349 57.0837 158.831 55.1914 156.829 52.8207C152.524 47.7635 150.252 41.3135 150.446 34.7026C150.258 28.2032 152.539 21.8706 156.84 16.9569C158.904 14.6772 161.431 12.8539 164.255 11.6056C167.078 10.3574 170.136 9.7122 173.228 9.7122C176.321 9.7122 179.378 10.3574 182.202 11.6056C185.026 12.8539 187.552 14.6772 189.617 16.9569C193.93 21.8724 196.217 28.2155 196.022 34.7245C196.227 41.3466 193.962 47.8116 189.661 52.8864Z" fill="#5C57FF"/>
<path d="M259.818 1.31445C258.802 1.33897 257.818 1.67285 257.001 2.27066C256.183 2.86847 255.572 3.70117 255.249 4.65545L238.224 52.0539C238.141 52.3157 237.975 52.5444 237.751 52.7066C237.527 52.8689 237.257 52.9564 236.98 52.9564C236.702 52.9564 236.432 52.8689 236.209 52.7066C235.985 52.5444 235.819 52.3157 235.735 52.0539L218.666 4.65545C218.342 3.70883 217.73 2.88476 216.914 2.29638C216.098 1.70799 215.118 1.38412 214.109 1.36922H214.009C210.58 1.36922 208.224 5.07171 209.485 8.48939L229.817 63.3366C230.35 64.829 231.32 66.1297 232.605 67.0719C233.856 67.982 235.366 68.4766 236.919 68.485C238.493 68.4556 240.019 67.9451 241.288 67.0234C242.558 66.1017 243.508 64.814 244.01 63.3366L264.386 8.43462C264.596 7.83564 264.705 7.20642 264.707 6.57242C264.737 5.90879 264.634 5.24589 264.404 4.62188C264.174 3.99787 263.821 3.42505 263.367 2.93639C262.912 2.44772 262.365 2.05285 261.756 1.7745C261.147 1.49614 260.488 1.3398 259.818 1.31445V1.31445Z" fill="#5C57FF"/>
<path d="M311.378 10.7459H276.555V1.31445H311.356" fill="#5C57FF"/>
<path d="M367.707 46.6206C367.431 46.1696 367.248 45.6682 367.171 45.146C367.093 44.6239 367.123 44.0917 367.257 43.581C367.391 43.0702 367.627 42.5913 367.951 42.1726C368.276 41.754 368.682 41.404 369.145 41.1436C371.896 39.7237 374.232 37.6261 375.926 35.0531C378.462 31.3599 379.798 26.9874 379.754 22.5216C379.808 17.0835 377.839 11.8159 374.223 7.7226C370.535 3.42129 365.58 1.27063 359.355 1.27063H333.193C332.71 1.28615 332.235 1.39614 331.796 1.59425C331.356 1.79237 330.96 2.0747 330.631 2.42498C330.302 2.77525 330.046 3.18655 329.878 3.63516C329.711 4.08377 329.634 4.56083 329.653 5.03884V64.3115C329.614 65.3528 329.995 66.3669 330.71 67.1309C331.426 67.8949 332.418 68.3465 333.47 68.3864H335.494C336.544 68.3437 337.533 67.8909 338.247 67.1272C338.96 66.3634 339.338 65.351 339.3 64.3115V47.256C339.267 46.2931 339.621 45.3567 340.285 44.6523C340.948 43.9479 341.867 43.533 342.839 43.4987H353.127C353.729 43.5007 354.32 43.6597 354.841 43.9597C355.361 44.2596 355.793 44.69 356.092 45.2075L369.112 66.6776C369.422 67.204 369.863 67.6421 370.395 67.9493C370.926 68.2564 371.528 68.4221 372.143 68.4302H374.577C377.464 68.4302 379.179 65.0235 377.586 62.4712L367.707 46.6206ZM358.703 34.2206H342.773C341.8 34.1807 340.882 33.7607 340.221 33.0524C339.559 32.3442 339.208 31.4054 339.244 30.4414L339.311 13.3311C339.287 12.6298 339.545 11.9477 340.028 11.4343C340.511 10.921 341.18 10.6183 341.888 10.5926H359.068C360.613 10.5365 362.151 10.822 363.571 11.4284C364.991 12.0347 366.256 12.9466 367.276 14.0979C368.398 15.3571 369.251 16.8283 369.784 18.423C370.316 20.0176 370.517 21.7025 370.373 23.376C370.269 25.2702 369.695 27.1099 368.703 28.7326C367.707 30.4699 366.247 31.9015 364.482 32.8697C362.718 33.838 360.718 34.3054 358.703 34.2206Z" fill="#5C57FF"/>
<path d="M434.191 38.1531C431.437 35.5022 427.355 33.2347 421.956 31.4273L406.668 26.1693C404.412 25.5865 402.327 24.4829 400.584 22.9488C399.956 22.3217 399.461 21.5755 399.13 20.7549C398.8 19.9343 398.64 19.0561 398.659 18.1728C398.677 16.9361 398.987 15.7207 399.563 14.6234C400.139 13.5261 400.966 12.5772 401.978 11.8523C404.4 10.0083 407.398 9.06268 410.452 9.17948C414.146 9.09331 417.783 10.0919 420.905 12.0495C422.859 13.2645 424.554 14.846 425.894 16.7049C426.312 17.3168 426.871 17.8209 427.526 18.1753C428.18 18.5297 428.91 18.7242 429.656 18.7424C430.099 18.743 430.54 18.6727 430.961 18.5343C431.707 18.2521 432.376 17.8008 432.914 17.2166C433.452 16.6323 433.844 15.9314 434.059 15.1699C434.274 14.4085 434.306 13.6077 434.152 12.8318C433.998 12.0559 433.663 11.3265 433.173 10.7021C431.375 8.42012 429.234 6.42513 426.824 4.78688C421.991 1.53242 416.25 -0.141573 410.407 -5.96725e-05C404.761 -0.163396 399.26 1.79304 395.009 5.47699C393.083 7.06829 391.536 9.06051 390.476 11.3117C389.417 13.563 388.872 16.0178 388.88 18.5014C388.88 26.3117 393.526 31.7887 402.874 34.9326L418.538 40.322C422.1 41.5379 424.611 42.8853 426.138 44.4298C426.873 45.1795 427.448 46.0685 427.828 47.0435C428.209 48.0185 428.386 49.0595 428.35 50.104C428.35 52.8644 427.012 55.2853 424.357 57.3994C421.446 59.5994 417.85 60.723 414.191 60.5761C409.803 60.6735 405.512 59.2906 402.022 56.6546C399.646 54.8658 397.678 52.5999 396.248 50.0054C395.772 49.0783 394.979 48.3489 394.011 47.9476C393.042 47.5462 391.961 47.4991 390.96 47.8146L390.617 47.9132C389.93 48.1666 389.306 48.5643 388.789 49.0791C388.272 49.5939 387.874 50.2135 387.621 50.8953C387.369 51.5771 387.269 52.3049 387.328 53.0287C387.387 53.7525 387.603 54.4551 387.962 55.0881C389.925 58.524 392.557 61.5399 395.706 63.9609C400.855 67.8963 407.224 69.9404 413.726 69.7447H413.992C421.167 69.7447 427.023 67.7766 431.558 63.8405C433.712 62.0713 435.436 59.8455 436.604 57.3275C437.772 54.8096 438.354 52.0639 438.306 49.2934C438.306 44.5284 436.957 40.8149 434.191 38.1531Z" fill="#5C57FF"/>
<path d="M499.668 61.6058L479.524 6.83531C478.983 5.24178 477.958 3.85235 476.59 2.8565C475.222 1.86066 473.577 1.30686 471.88 1.27063H470.774C469.074 1.30462 467.427 1.85739 466.057 2.8534C464.687 3.8494 463.66 5.24005 463.119 6.83531L442.985 61.6058C442.767 62.1913 442.659 62.8112 442.665 63.4352C442.62 64.7129 443.088 65.9561 443.967 66.8924C444.847 67.8287 446.065 68.3817 447.355 68.4302C448.327 68.4129 449.27 68.0969 450.053 67.5258C450.835 66.9547 451.42 66.1569 451.725 65.2426L454.921 56.4793C455.337 55.2287 456.133 54.1362 457.201 53.3516C458.268 52.5671 459.555 52.129 460.884 52.0977H481.792C483.121 52.1274 484.408 52.5649 485.476 53.3496C486.544 54.1344 487.34 55.2279 487.754 56.4793L490.962 65.2426C491.284 66.1675 491.882 66.9736 492.677 67.5539C493.443 68.1227 494.374 68.4302 495.332 68.4302C498.606 68.4302 500.874 64.8811 499.668 61.6058ZM480.342 42.9291H462.289C461.999 42.9155 461.716 42.8331 461.465 42.6888C461.213 42.5445 461.001 42.3426 460.845 42.1C460.689 41.8574 460.594 41.5812 460.568 41.2947C460.542 41.0081 460.586 40.7196 460.696 40.4535L469.756 15.5767C469.863 15.2413 470.075 14.9484 470.361 14.7404C470.648 14.5325 470.994 14.4204 471.349 14.4204C471.704 14.4204 472.05 14.5325 472.336 14.7404C472.623 14.9484 472.835 15.2413 472.942 15.5767L481.924 40.4535C482.034 40.7188 482.078 41.0064 482.053 41.2921C482.028 41.5778 481.934 41.8534 481.779 42.0957C481.624 42.3381 481.413 42.5402 481.163 42.6852C480.913 42.8302 480.632 42.9138 480.342 42.9291V42.9291Z" fill="#5C57FF"/>
<path d="M132.868 37.9559C132.348 38.7446 131.762 39.5552 131.186 40.3986C128.143 44.5747 124.628 48.3932 120.711 51.7799L113.786 66.3708C115.025 65.6697 116.253 64.9139 117.436 64.0924C128.62 56.5012 137.923 44.5393 140.877 38.8979C141.137 38.4273 141.366 37.9407 141.563 37.441L144.317 18.2494V18.1837C142.005 23.0035 143.355 22.0177 132.868 37.9559Z" fill="#5C57FF"/>
<path d="M276.555 29.576V38.9856H311.356V29.576H276.555Z" fill="#5C57FF"/>
<path d="M276.555 58.4072V67.8168H311.356V58.4072H276.555Z" fill="#5C57FF"/>
<path d="M122.259 10.1215C119.338 6.90726 115.75 4.3563 111.74 2.64334C107.731 0.930375 103.394 0.0958925 99.0287 0.197055C94.6632 0.0973472 90.3275 0.932489 86.3181 2.64536C82.3087 4.35823 78.7202 6.90841 75.7981 10.1215C71.3151 14.9275 68.3537 20.9296 67.2802 27.3851C66.269 33.1039 66.4157 38.9647 67.7116 44.6269C69.0749 50.3187 71.9026 55.5642 75.9198 59.8531C78.8324 63.0838 82.417 65.6516 86.4271 67.3799C90.4373 69.1082 94.7778 69.9561 99.1504 69.8652V69.8652C104.243 69.9361 109.275 68.7582 113.797 66.4365C113.797 66.4365 113.797 66.4365 113.797 66.4365C115.069 65.7684 116.29 65.0068 117.447 64.1581C119.178 62.8886 120.778 61.454 122.226 59.875C127.195 54.5121 130.32 47.7283 131.153 40.4972C131.385 38.6806 131.5 36.8512 131.496 35.0201C131.529 24.9533 128.432 16.7268 122.259 10.1215ZM99.1393 60.3351V60.2474C96.016 60.3357 92.9132 59.7199 90.0655 58.4465C87.2177 57.1732 84.6995 55.2757 82.7009 52.8972C78.3951 47.8416 76.126 41.3897 76.3291 34.7792C76.1449 28.2837 78.4263 21.9558 82.723 17.0445C84.7454 14.7107 87.2691 12.8541 90.1095 11.6108C92.9499 10.3675 96.0351 9.7688 99.1393 9.85857C102.237 9.77935 105.313 10.3875 108.142 11.6385C110.971 12.8895 113.481 14.7516 115.489 17.0883C119.785 22.0219 122.065 28.3661 121.883 34.8777C122.07 41.4787 119.811 47.9192 115.534 52.9849C113.543 55.3611 111.032 57.2577 108.192 58.5312C105.352 59.8046 102.256 60.4215 99.1393 60.3351V60.3351Z" fill="#5C57FF"/>
</g>
<defs>
<clipPath id="clip0_30_4">
<rect width="500" height="69.8324" fill="white"/>
</clipPath>
</defs>
</svg>
