<svg width="435" height="435" viewBox="0 0 435 435" fill="none" xmlns="http://www.w3.org/2000/svg">
<path d="M429.147 168.685V169.643C399.25 253.109 309.274 341.981 286.286 357.99C263.299 373.999 236.927 377.556 205.759 377.556C163.099 377.556 130.239 358.4 103.585 327.682C76.6923 296.419 62.4324 256.736 63.4625 216.028C62.3011 175.7 76.4832 136.368 103.303 105.538C115.978 90.8728 131.918 79.1898 149.922 71.3683C167.925 63.5469 187.524 59.791 207.24 60.3836C236.576 59.7244 265.329 68.3985 289.107 85.0815L328.665 38.0803C294.889 12.493 253.85 0.0414094 206.465 0.0414094C178.729 -0.5247 151.193 4.71948 125.736 15.4163C100.279 26.1131 77.4989 42.0109 58.9496 62.0256C19.6499 103.257 0 154.865 0 216.849C0 278.902 19.6734 330.555 59.3022 372.425C77.8589 392.614 100.707 408.659 126.271 419.454C151.835 430.249 179.507 435.538 207.381 434.957H208.016C255.26 431.536 265.696 430.578 297.921 414.432C355.813 385.356 417.795 303.121 431.897 277.602C433.241 275.465 434.284 273.165 435 270.76L429.147 168.685Z" fill="#5c57ff"/>
</svg>
